<svg width="32" height="32" viewBox="0 0 32 32" fill="none" xmlns="http://www.w3.org/2000/svg">
<path d="M0 5C0 2.23858 2.23858 0 5 0H27C29.7614 0 32 2.23858 32 5V27C32 29.7614 29.7614 32 27 32H5C2.23858 32 0 29.7614 0 27V5Z" fill="white"/>
<path d="M8 15.68C8 12.0587 8 10.2507 9.12 9.12C10.256 8 12.064 8 15.68 8H16.32C19.9413 8 21.7493 8 22.88 9.12C24 10.256 24 12.064 24 15.68V16.32C24 19.9413 24 21.7493 22.88 22.88C21.744 24 19.936 24 16.32 24H15.68C12.0587 24 10.2507 24 9.12 22.88C8 21.744 8 19.936 8 16.32V15.68Z" fill="#0077FF"/>
<path d="M16.5121 19.5256C12.8641 19.5256 10.7841 17.0296 10.6987 12.8696H12.5334C12.5921 15.9203 13.9361 17.2109 15.0027 17.4776V12.8696H16.7254V15.4989C17.7761 15.3869 18.8854 14.1869 19.2587 12.8643H20.9761C20.836 13.5489 20.5563 14.1974 20.1544 14.7691C19.7525 15.3408 19.2369 15.8234 18.6401 16.1869C19.3062 16.5185 19.8944 16.9874 20.366 17.5629C20.8376 18.1384 21.1819 18.8073 21.3761 19.5256H19.4827C19.0774 18.2616 18.0641 17.2803 16.7254 17.1469V19.5256H16.5174H16.5121Z" fill="white"/>
</svg>
